HIERARCHY
ROOT Hips
{
	OFFSET -3.958830 18.904000 13.208200
	CHANNELS 6 Xposition Yposition Zposition Zrotation Yrotation Xrotation 
	JOINT LHipJoint
	{
		OFFSET 0.000000 0.000000 0.000000
		CHANNELS 3 Zrotation Yrotation Xrotation
		JOINT LeftUpLeg
		{
			OFFSET 1.800000 -1.400000 0.085000
			CHANNELS 3 Zrotation Yrotation Xrotation
			JOINT LeftLeg
			{
				OFFSET 2.215000 -6.000000 0.000000
				CHANNELS 3 Zrotation Yrotation Xrotation
				JOINT LeftFoot
				{
					OFFSET 2.500000 -6.900000 0.000000
					CHANNELS 3 Zrotation Yrotation Xrotation
					JOINT LeftToeBase
					{
						OFFSET 0.200000 -0.500000 1.950000
						CHANNELS 3 Zrotation Yrotation Xrotation
						End Site
						{
							OFFSET 0.000000 0.000000 0.000000
						}
					}
				}
			}
		}
	}
	JOINT RHipJoint
	{
		OFFSET 0.000000 0.000000 0.000000
		CHANNELS 3 Zrotation Yrotation Xrotation
		JOINT RightUpLeg
		{
			OFFSET -1.800000 -1.400000 0.085000
			CHANNELS 3 Zrotation Yrotation Xrotation
			JOINT RightLeg
			{
				OFFSET -2.215000 -6.000000 0.000000
				CHANNELS 3 Zrotation Yrotation Xrotation
				JOINT RightFoot
				{
					OFFSET -2.500000 -6.900000 0.000000
					CHANNELS 3 Zrotation Yrotation Xrotation
					JOINT RightToeBase
					{
						OFFSET -0.200000 -0.500000 1.950000
						CHANNELS 3 Zrotation Yrotation Xrotation
						End Site
						{
							OFFSET 0.000000 0.000000 0.000000
						}
					}
				}
			}
		}
	}
	JOINT LowerBack
	{
		OFFSET 0.000000 0.000000 0.000000
		CHANNELS 3 Zrotation Yrotation Xrotation
		JOINT Spine
		{
			OFFSET -0.087000 1.940000 -0.288900
			CHANNELS 3 Zrotation Yrotation Xrotation
			JOINT Spine1
			{
				OFFSET 0.000000 1.950000 0.060000
				CHANNELS 3 Zrotation Yrotation Xrotation
				JOINT Neck
				{
					OFFSET 0.000000 0.000000 0.000000
					CHANNELS 3 Zrotation Yrotation Xrotation
					JOINT Neck1
					{
						OFFSET 0.000000 1.600000 0.340000
						CHANNELS 3 Zrotation Yrotation Xrotation
						JOINT Head
						{
							OFFSET 0.000000 1.667000 -0.240000
							CHANNELS 3 Zrotation Yrotation Xrotation
							End Site
							{
								OFFSET 0.000000 0.000000 0.000000
							}
						}
					}
				}
				JOINT LeftShoulder
				{
					OFFSET 0.000000 0.000000 0.000000
					CHANNELS 3 Zrotation Yrotation Xrotation
					JOINT LeftArm
					{
						OFFSET 2.700000 1.550000 -0.730000
						CHANNELS 3 Zrotation Yrotation Xrotation
						JOINT LeftForeArm
						{
							OFFSET 5.450000 0.000000 0.000000
							CHANNELS 3 Zrotation Yrotation Xrotation
							JOINT LeftHand
							{
								OFFSET 3.450000 0.000000 0.000000
								CHANNELS 3 Zrotation Yrotation Xrotation
								JOINT LeftHandIndex1
								{
									OFFSET 0.750000 0.000000 0.000000
									CHANNELS 3 Zrotation Yrotation Xrotation
									End Site
									{
										OFFSET 0.000000 0.000000 0.000000
									}
								}
							}
						}
					}
				}
				JOINT RightShoulder
				{
					OFFSET 0.000000 0.000000 0.000000
					CHANNELS 3 Zrotation Yrotation Xrotation
					JOINT RightArm
					{
						OFFSET -2.700000 1.550000 -0.730000
						CHANNELS 3 Zrotation Yrotation Xrotation
						JOINT RightForeArm
						{
							OFFSET -5.450000 0.000000 0.000000
							CHANNELS 3 Zrotation Yrotation Xrotation
							JOINT RightHand
							{
								OFFSET -3.450000 0.000000 0.000000
								CHANNELS 3 Zrotation Yrotation Xrotation
								JOINT RightHandIndex1
								{
									OFFSET -0.750000 0.000000 0.000000
									CHANNELS 3 Zrotation Yrotation Xrotation
									End Site
									{
										OFFSET 0.000000 0.000000 0.000000
									}
								}
							}
						}
					}
				}
			}
		}
	}
}
MOTION
Frames: 6
Frame Time: 0.016667
0.306950 16.668650 -0.513840 -11.355480 31.997160 -12.508065 -15.424965 13.071171 2.988471 17.426797 4.888990 -34.652754 9.191748 8.412646 38.866202 -0.360458 7.360682 1.921179 0.163180 -0.543710 0.350500 17.892496 -11.531408 2.418630 -20.045927 7.113068 -2.461166 14.303237 -12.566797 35.065163 -0.853015 -7.390235 1.870279 -0.255100 0.297660 0.107090 -3.526826 0.033663 -8.118939 -8.536704 7.219359 16.498987 -23.638685 13.493833 5.052033 9.061283 -5.492889 -19.016556 -15.040461 3.662819 49.692950 1.391330 -3.805090 -0.697240 -9.170820 -18.340069 9.028824 -13.850845 -2.297998 -1.652919 -170.126946 -54.697486 145.085510 -3.450480 3.252926 0.928900 -0.024740 -0.125370 0.082960 -7.698673 31.630405 7.463379 -30.459813 9.837985 -8.215820 -15.265648 12.192047 -0.458788 2.434132 -1.264683 -0.492780 0.284520 0.151490 -0.386440 
0.297590 16.665590 -0.525240 -11.530911 31.932726 -13.200370 -15.422435 13.061957 2.913657 17.779426 5.325656 -34.209067 9.172609 8.499549 38.781418 -0.351210 7.324453 1.902815 0.226010 -0.444940 0.369380 17.907191 -11.532452 2.429553 -19.931051 7.309155 -2.009920 14.555107 -12.666447 35.369193 -0.905031 -7.462583 1.854192 -0.206480 0.247660 0.096640 -3.556999 0.124172 -8.080414 -8.835122 7.416048 17.027714 -23.176474 13.807262 5.896362 8.718061 -5.401933 -18.666985 -15.045014 4.400731 51.285931 2.279310 -3.338440 -2.249010 -9.054944 -18.459773 9.076140 -12.936268 -2.043997 -1.929017 -171.529311 -54.684459 147.706831 -3.408382 3.268322 0.934940 -0.055250 -0.088850 0.097340 -7.276440 31.402619 7.090128 -30.181350 10.890558 -8.100928 -14.006656 13.878086 -0.334204 2.356702 -1.308727 -0.462320 0.278940 0.114230 -0.385720 
0.273040 16.674290 -0.563420 -11.757620 31.125727 -15.384325 -15.442260 13.190372 2.692365 18.712979 6.337032 -32.342229 9.065513 8.731496 38.849157 -0.371507 7.458183 1.864273 0.284930 -0.360570 0.373960 17.910166 -11.511922 2.393506 -19.730506 7.543116 -0.447381 14.364470 -12.590532 35.928143 -0.931343 -7.644768 1.821712 -0.121620 0.282790 0.084690 -3.496597 0.020464 -7.894421 -9.478292 7.303288 19.082749 -22.290963 14.560468 8.850794 8.772481 -6.531873 -17.350751 -16.373084 4.683897 48.311298 1.276780 -3.061780 -4.457360 -8.728779 -18.012942 8.415757 -11.673625 -2.676696 -2.962603 -175.634746 -54.603792 154.154386 -3.414190 3.300108 0.900650 -0.022210 -0.128450 0.127090 -7.963682 31.791847 6.061219 -29.853232 12.327088 -9.688487 -16.537338 16.074760 -1.157167 2.341620 -1.470370 -0.479680 0.321470 0.097620 -0.379750 
0.252260 16.668280 -0.591260 -11.223412 30.747456 -15.954744 -15.496030 13.274546 2.606296 18.963811 6.883851 -31.680508 8.300629 9.163778 38.757154 -0.300832 7.497001 1.843960 0.342560 -0.249750 0.327590 17.882837 -11.387964 2.348940 -20.334006 7.890041 -0.012198 14.663173 -12.660004 36.199363 -0.935567 -7.818394 1.771188 -0.059900 0.304350 0.113280 -3.308528 -0.267815 -7.714595 -11.562296 7.795782 19.494271 -20.761672 15.410372 10.845433 8.477326 -7.496421 -16.650968 -17.723801 6.050610 46.752869 0.817680 -2.203800 -2.924540 -8.061589 -18.115727 8.469163 -10.458671 -2.783404 -3.662268 178.371253 -54.551326 165.210779 -3.425039 3.432089 0.794220 0.024960 -0.157050 0.185160 -8.116673 32.941428 5.111666 -29.595873 14.839161 -11.556057 -20.299665 15.907404 -2.276002 2.429293 -1.630028 -0.417100 0.267070 0.054180 -0.326000 
0.248930 16.670500 -0.612460 -11.426006 31.257540 -16.441524 -15.488412 13.326387 2.600992 18.795761 7.068826 -31.852702 8.513467 9.019050 38.680434 -0.197076 7.351694 1.849162 0.437100 -0.121990 0.366470 17.877252 -11.402539 2.352130 -20.129406 7.972696 0.464249 14.438986 -12.440389 36.048205 -1.003548 -7.744272 1.767340 -0.053840 0.207180 0.170740 -3.344982 -0.305773 -7.733847 -12.118501 7.899269 20.615240 -20.219049 15.639729 11.319016 8.077560 -8.042121 -17.508161 -20.082199 8.005341 49.786234 2.108420 -1.846270 -3.331910 -6.790939 -19.303568 9.239707 -9.008694 -2.741365 -3.750927 175.135532 -53.424028 171.486313 -3.334628 3.535124 0.790890 -0.043870 -0.052780 0.213220 -8.398145 34.920585 4.750826 -29.062026 15.844285 -12.013606 -19.899590 14.504110 -2.146360 2.526447 -1.649603 -0.290050 0.175970 -0.018250 -0.285010 
0.243520 16.661660 -0.625510 -11.218204 31.242308 -17.271669 -15.500726 13.470697 2.492748 18.719771 7.503940 -31.204741 8.947478 8.886278 38.615322 -0.145118 7.259846 1.854471 0.468210 -0.060270 0.396370 17.848891 -11.409443 2.357507 -20.209793 8.377071 1.115073 14.217014 -12.442977 36.898688 -1.060040 -7.801061 1.733030 -0.047100 0.150600 0.166140 -3.288829 -0.451271 -7.659054 -13.218356 8.220310 21.682890 -19.377061 16.240446 12.075405 7.790951 -8.111997 -18.092564 -21.193611 9.354332 52.174620 3.304430 -1.350490 -3.937830 -5.217321 -20.110099 9.651613 -6.739108 -3.256566 -3.174105 173.474504 -50.659579 175.377074 -3.285354 3.553038 0.799290 -0.091150 0.005870 0.204850 -9.283722 36.227475 4.601092 -29.818229 15.407432 -12.291599 -18.497991 15.081529 -1.867531 2.559308 -1.652160 -0.246640 0.161170 -0.048650 -0.273700 
